<svg viewBox="0 0 117 102" xmlns="http://www.w3.org/2000/svg" xmlns:xlink="http://www.w3.org/1999/xlink" width="117.000000" height="102.000000" fill="none">
	<rect id="IMAGE" width="117.000000" height="102.000000" x="0.000000" y="0.000000" />
	<g id="Landing-page">
		<g id="Landing-Page-1">
			<path id="Finalizing-Icon" d="M58.5 0C90.8087 0 117 22.8335 117 51C117 79.1665 90.8087 102 58.5 102C26.1913 102 0 79.1665 0 51C0 22.8335 26.1913 0 58.5 0ZM51.1078 37L44.7353 44L44.7353 65L57.4804 65L57.4804 44L51.1078 37ZM71.8186 39.8L62.2598 39.8C61.3799 39.8 60.6667 40.4268 60.6667 41.2L60.6667 63.6C60.6667 64.3732 61.3799 65 62.2598 65L71.8186 65C72.6985 65 73.4118 64.3732 73.4118 63.6L73.4118 59.4L70.2255 59.4L70.2255 56.6L73.4118 56.6L73.4118 53.8L68.6323 53.8L68.6323 51L73.4118 51L73.4118 48.2L70.2255 48.2L70.2255 45.4L73.4118 45.4L73.4118 41.2C73.4118 40.4268 72.6985 39.8 71.8186 39.8ZM54.2941 59.4L54.2941 62.2L47.9216 62.2L47.9216 59.4L54.2941 59.4Z" fill="rgb(64,62,59)" fill-rule="evenodd" />
		</g>
	</g>
</svg>
