<svg viewBox="0 0 24 24" xmlns="http://www.w3.org/2000/svg" xmlns:xlink="http://www.w3.org/1999/xlink" width="24.000000" height="24.000000" fill="none">
	<rect id="IMAGE" width="24.000000" height="24.000000" x="0.000000" y="0.000000" />
	<g id="Instagram-Icon-Dark">
		<path id="Shape" d="M12 5.76825C8.5638 5.76825 5.76825 8.5638 5.76825 12C5.76825 15.4362 8.5638 18.2293 12 18.2293C15.4362 18.2293 18.2293 15.4338 18.2293 12C18.2317 8.5638 15.4362 5.76825 12 5.76825ZM12 15.8536C9.87422 15.8536 8.14641 14.1258 8.14641 12C8.14641 9.87422 9.87422 8.14641 12 8.14641C14.1258 8.14641 15.8536 9.87422 15.8536 12C15.8536 14.1258 14.1258 15.8536 12 15.8536ZM17.0936 0L6.90637 0C3.09889 0 0 3.09889 0 6.90637L0 17.0936C0 20.9011 3.09889 24 6.90637 24L17.0936 24C20.9011 24 24 20.9011 24 17.0936L24 6.90637C24 3.09889 20.9035 0 17.0936 0ZM21.6243 17.0936C21.6243 19.5907 19.5907 21.6218 17.0936 21.6218L6.90637 21.6218C4.4093 21.6218 2.37816 19.5907 2.37816 17.0936L2.37816 6.90637C2.37816 4.4093 4.4093 2.37816 6.90637 2.37816L17.0936 2.37816C19.5907 2.37816 21.6218 4.4093 21.6218 6.90637L21.6218 17.0936L21.6243 17.0936ZM18.3167 3.96764C17.4188 3.96764 16.6859 4.69808 16.6859 5.59838C16.6859 6.49626 17.4164 7.22912 18.3167 7.22912C19.2146 7.22912 19.9474 6.49869 19.9474 5.59838C19.9474 4.69808 19.2146 3.96764 18.3167 3.96764Z" fill="rgb(27,26,26)" fill-rule="nonzero" />
	</g>
</svg>
